<svg viewBox="0 0 184 34" fill="none" xmlns="http://www.w3.org/2000/svg"> <g clip-path="url(#clip0)"> <path d="M4.94968 14.7123H0V13.9267C0.212805 13.7885 0.444 13.6693 0.690959 13.5664C0.937918 13.4635 1.18225 13.3849 1.42133 13.328L6.59432 0H8.0787L13.1098 13.328C13.3778 13.3822 13.6432 13.4635 13.9111 13.5664C14.1791 13.6693 14.4129 13.7913 14.6126 13.9267V14.7123H8.33617V13.9267C8.59101 13.8021 8.86424 13.6856 9.15849 13.5745C9.45274 13.4635 9.73385 13.3822 9.9992 13.3253L8.83797 10.0394H4.39009L3.20784 13.3253C3.82261 13.4093 4.40322 13.607 4.95231 13.924V14.7123H4.94968ZM4.87087 8.70114H8.41762L7.11451 4.7542L6.73357 2.97713H6.69416L6.25279 4.79484L4.87087 8.70114Z" fill="#424242"/> <path d="M23.0277 13.0408C22.9331 13.3171 22.7807 13.5691 22.5679 13.7939C22.3551 14.0214 22.0977 14.2246 21.7955 14.4034C21.496 14.5822 21.1545 14.7204 20.7735 14.8179C20.3926 14.9154 19.9959 14.9615 19.5808 14.9615C18.698 14.9615 17.9414 14.8341 17.3056 14.5795C16.6698 14.3248 16.147 13.9591 15.7319 13.4851C15.3168 13.011 15.0094 12.4394 14.8098 11.7703C14.6101 11.1012 14.5103 10.3617 14.5103 9.54897C14.5103 7.79899 14.9753 6.46077 15.9027 5.5289C16.8301 4.59973 18.1516 4.13379 19.8619 4.13379C20.5161 4.13379 21.1177 4.20693 21.6668 4.3505C22.2133 4.49408 22.6678 4.66474 23.0303 4.85708C23.0041 5.09276 22.9673 5.35011 22.92 5.63184C22.8727 5.91357 22.8201 6.19801 22.7597 6.47974C22.6993 6.76147 22.6284 7.03778 22.5495 7.30597C22.4707 7.57415 22.3893 7.799 22.3078 7.97779H21.3253L20.4845 5.51806C20.39 5.45034 20.2901 5.39887 20.185 5.36365C20.0773 5.32843 19.9171 5.31218 19.7043 5.31218C19.3575 5.31218 19.0553 5.3772 18.8031 5.50993C18.5483 5.63996 18.3329 5.86481 18.1516 6.18175C17.9703 6.4987 17.8363 6.91859 17.7496 7.44141C17.6629 7.96424 17.6183 8.61168 17.6183 9.38373C17.6183 9.9499 17.6787 10.4673 17.7995 10.9441C17.9204 11.4181 18.1043 11.8326 18.3512 12.1848C18.5982 12.5369 18.9082 12.8105 19.2839 13.011C19.657 13.2115 20.0983 13.3117 20.6054 13.3117C21.073 13.3117 21.4803 13.244 21.8271 13.1058C22.1739 12.9677 22.4681 12.8024 22.7098 12.6101L23.0277 13.0408Z" fill="#424242"/> <path d="M29.48 14.7123H24.1704V13.9267C24.3569 13.8156 24.5645 13.7235 24.7904 13.6477C25.0164 13.5718 25.2502 13.4987 25.4919 13.431V5.66441C25.2502 5.59669 25.0164 5.52355 24.7904 5.4477C24.5619 5.37185 24.3569 5.27703 24.1704 5.16867V4.38308H29.4827V5.16867C29.1753 5.36372 28.8075 5.52896 28.3792 5.66712V8.90973H32.1072V5.66441C31.7184 5.58043 31.3532 5.41519 31.0038 5.16597V4.38037H36.3161V5.16597C35.9561 5.40164 35.5148 5.56689 34.9946 5.66441V13.431C35.2363 13.4879 35.4675 13.5502 35.696 13.6179C35.922 13.6856 36.1295 13.7913 36.3161 13.9294V14.715H31.0038V13.9294C31.3506 13.6666 31.7184 13.5014 32.1072 13.431V10.0854H28.3792V13.431C28.6052 13.4879 28.8101 13.5556 28.9914 13.6396C29.1726 13.7235 29.3355 13.8211 29.4827 13.9294V14.7123H29.48Z" fill="#424242"/> <path d="M37.4771 4.38037H42.8077V5.16597C42.6606 5.24994 42.4898 5.33121 42.2954 5.41519C42.101 5.49917 41.8698 5.58043 41.6044 5.66441V10.3292L41.3837 12.2553H41.4836L42.2665 10.7058L45.9341 4.38308H49.7225V5.16867C49.2943 5.4179 48.8529 5.58314 48.401 5.66712V13.4337C48.6559 13.5014 48.895 13.5745 49.1235 13.6504C49.3495 13.7262 49.5518 13.8211 49.7252 13.9294V14.715H44.3945V13.9294C44.7676 13.71 45.1696 13.542 45.5978 13.431V8.53861L45.7975 6.9024H45.6976L44.9357 8.45192L41.3075 14.7123H37.4797V13.9267C37.7056 13.8156 37.9263 13.7235 38.1417 13.6477C38.3545 13.5718 38.5752 13.4987 38.8038 13.431V5.66441C38.2836 5.58043 37.8422 5.41519 37.4823 5.16597V4.38037H37.4771Z" fill="#424242"/> <path d="M59.4432 13.0408C59.3487 13.3171 59.1963 13.5691 58.9835 13.7939C58.7707 14.0214 58.5132 14.2246 58.2111 14.4034C57.9116 14.5822 57.57 14.7204 57.1891 14.8179C56.8081 14.9154 56.4114 14.9615 55.9963 14.9615C55.1136 14.9615 54.3569 14.8341 53.7211 14.5795C53.0854 14.3248 52.5625 13.9591 52.1474 13.4851C51.7323 13.011 51.425 12.4394 51.2253 11.7703C51.0256 11.1012 50.9258 10.3617 50.9258 9.54897C50.9258 7.79899 51.3908 6.46077 52.3182 5.5289C53.2456 4.59973 54.5671 4.13379 56.2774 4.13379C56.9316 4.13379 57.5333 4.20693 58.0823 4.3505C58.6288 4.49408 59.0833 4.66474 59.4459 4.85708C59.4196 5.09276 59.3828 5.35011 59.3355 5.63184C59.2882 5.91357 59.2357 6.19801 59.1753 6.47974C59.1148 6.76147 59.0439 7.03778 58.9651 7.30597C58.8863 7.57415 58.8048 7.799 58.7234 7.97779H57.7408L56.9001 5.51806C56.8055 5.45034 56.7057 5.39887 56.6006 5.36365C56.4929 5.32843 56.3326 5.31218 56.1198 5.31218C55.773 5.31218 55.4709 5.3772 55.2187 5.50993C54.9638 5.63996 54.7484 5.86481 54.5671 6.18175C54.3858 6.4987 54.2518 6.91859 54.1651 7.44141C54.0785 7.96424 54.0338 8.61168 54.0338 9.38373C54.0338 9.9499 54.0942 10.4673 54.2151 10.9441C54.3359 11.4181 54.5198 11.8326 54.7668 12.1848C55.0137 12.5369 55.3238 12.8105 55.6994 13.011C56.0725 13.2115 56.5139 13.3117 57.0209 13.3117C57.4886 13.3117 57.8958 13.244 58.2426 13.1058C58.5894 12.9677 58.8836 12.8024 59.1254 12.6101L59.4432 13.0408Z" fill="#424242"/> <path d="M65.9956 4.38037H71.3262V5.16597C71.1791 5.24994 71.0083 5.33121 70.8139 5.41519C70.6195 5.49917 70.3883 5.58043 70.123 5.66441V10.3292L69.9023 12.2553H70.0021L70.785 10.7058L74.4526 4.38308H78.2411V5.16867C77.8128 5.4179 77.3715 5.58314 76.9196 5.66712V13.4337C77.1744 13.5014 77.4135 13.5745 77.6421 13.6504C77.868 13.7262 78.0703 13.8211 78.2437 13.9294V14.715H72.9131V13.9294C73.2861 13.71 73.6881 13.542 74.1163 13.431V8.53861L74.316 6.9024H74.2162L73.4543 8.45192L69.8261 14.7123H65.9956V13.9267C66.2215 13.8156 66.4422 13.7235 66.6577 13.6477C66.8705 13.5718 67.0912 13.4987 67.3197 13.431V5.66441C66.7995 5.58043 66.3582 5.41519 65.9982 5.16597V4.38037H65.9956Z" fill="#CDA975"/> <path d="M90.1239 14.7123H84.8117V13.9267C85.0666 13.775 85.3004 13.6612 85.5132 13.5854C85.726 13.5095 85.9335 13.4581 86.1332 13.431V5.66441C85.8521 5.59669 85.5999 5.51813 85.3713 5.43686C85.1427 5.35288 84.9562 5.26349 84.8091 5.16597V4.38037H96.8549V5.16597C96.6815 5.27703 96.4871 5.37997 96.2743 5.47749C96.0615 5.57502 95.8145 5.63732 95.5334 5.66441V13.431C95.9879 13.5149 96.4293 13.6802 96.8575 13.9294V14.715H91.5479V13.9294C91.6819 13.8319 91.8238 13.7425 91.9788 13.6612C92.1338 13.5772 92.3571 13.5014 92.6513 13.4337V5.55876H89.0231V13.431C89.2911 13.5149 89.5039 13.5962 89.6642 13.6802C89.8244 13.7642 89.9794 13.8454 90.1266 13.9294V14.7123H90.1239Z" fill="#424242"/> <path d="M106.86 11.7162C106.86 12.0196 106.862 12.2823 106.87 12.5018C106.878 12.7212 106.894 12.9569 106.92 13.2034L108.302 13.4092V14.1325C108.142 14.2138 107.924 14.2978 107.65 14.3818C107.377 14.4657 107.088 14.5443 106.789 14.6201C106.489 14.696 106.19 14.7583 105.898 14.8071C105.604 14.8558 105.344 14.8938 105.115 14.9208H104.435C104.301 14.6039 104.222 14.2869 104.193 13.97C104.167 13.6531 104.146 13.2684 104.133 12.8133H104.033C103.967 13.0896 103.852 13.3551 103.691 13.6097C103.531 13.8644 103.326 14.0919 103.079 14.2924C102.832 14.4928 102.541 14.6527 102.207 14.7773C101.873 14.9019 101.498 14.9642 101.085 14.9642C100.644 14.9642 100.236 14.8938 99.8634 14.7583C99.4903 14.6201 99.1619 14.4278 98.8808 14.1786C98.5997 13.9294 98.379 13.6314 98.2188 13.2792C98.0585 12.9271 97.9771 12.5316 97.9771 12.09C97.9771 11.4696 98.09 10.9604 98.3186 10.5594C98.5445 10.1612 98.9018 9.83344 99.3905 9.5788C99.8792 9.32416 100.507 9.13453 101.274 9.00992C102.041 8.88531 102.974 8.79591 104.07 8.74173C104.177 7.55792 104.13 6.68835 103.93 6.13843C103.731 5.58852 103.295 5.3122 102.627 5.3122C102.212 5.3122 101.831 5.38264 101.484 5.51809L100.544 7.99677H99.6611C99.5534 7.83153 99.4509 7.6419 99.3511 7.42789C99.2513 7.21389 99.1567 6.98633 99.07 6.74524C98.9833 6.50414 98.9097 6.26034 98.8493 6.01111C98.7889 5.76189 98.7468 5.5235 98.7179 5.28782C99.225 4.93024 99.8792 4.64851 100.683 4.43992C101.484 4.23404 102.333 4.1311 103.229 4.1311C103.991 4.1311 104.611 4.21779 105.092 4.38845C105.572 4.56183 105.951 4.7948 106.224 5.09007C106.497 5.38535 106.689 5.7348 106.794 6.13302C106.902 6.53394 106.954 6.95925 106.954 7.41435C106.954 8.24058 106.939 8.98825 106.904 9.65736C106.875 10.3292 106.86 11.0145 106.86 11.7162ZM102.351 13.309C102.632 13.309 102.872 13.2548 103.074 13.1438C103.274 13.0327 103.444 12.9027 103.586 12.751C103.725 12.5993 103.833 12.434 103.907 12.2552C103.98 12.0764 104.038 11.9166 104.077 11.7812V9.71424C103.45 9.72779 102.935 9.76842 102.535 9.83886C102.133 9.90658 101.821 10.0204 101.595 10.1802C101.366 10.3373 101.211 10.5378 101.124 10.7789C101.038 11.02 100.993 11.3125 100.993 11.6566C100.993 12.1794 101.114 12.5857 101.353 12.8756C101.589 13.1627 101.923 13.309 102.351 13.309Z" fill="#424242"/> <path d="M114.555 18.8461H109.024V18.0605C109.479 17.8384 109.92 17.6731 110.349 17.562V5.82688L109.024 5.66164V4.87604C109.237 4.78123 109.503 4.68912 109.815 4.60785C110.128 4.52659 110.454 4.45344 110.787 4.39114C111.121 4.32883 111.444 4.27736 111.759 4.23673C112.072 4.19609 112.337 4.16088 112.55 4.13379H113.233V6.44723H113.254C113.48 5.78625 113.837 5.23633 114.326 4.79477C114.815 4.35321 115.493 4.13379 116.36 4.13379C116.948 4.13379 117.479 4.23402 117.952 4.43448C118.425 4.63494 118.827 4.94376 119.155 5.36365C119.483 5.78354 119.736 6.32262 119.917 6.97548C120.098 7.63104 120.187 8.41122 120.187 9.32142C120.187 10.1883 120.069 10.9739 119.838 11.6782C119.607 12.3825 119.271 12.9731 118.837 13.4553C118.404 13.9375 117.876 14.3086 117.253 14.5714C116.63 14.8341 115.926 14.9642 115.138 14.9642C114.683 14.9642 114.326 14.9344 114.066 14.8721C113.806 14.8098 113.527 14.7041 113.233 14.5524V17.5675C113.446 17.5945 113.661 17.646 113.874 17.7246C114.087 17.8031 114.316 17.9142 114.555 18.0686V18.8461ZM115.196 5.78625C114.741 5.78625 114.337 5.95149 113.982 6.28198C113.627 6.61248 113.378 7.12176 113.231 7.81254V13.309C113.443 13.4742 113.672 13.5961 113.911 13.6693C114.153 13.7451 114.465 13.7831 114.854 13.7831C115.616 13.7831 116.176 13.4038 116.538 12.6453C116.898 11.8868 117.079 10.7788 117.079 9.31872C117.079 8.18908 116.943 7.3168 116.67 6.70458C116.396 6.09236 115.905 5.78625 115.196 5.78625Z" fill="#424242"/> <path d="M129.086 14.7123H123.393V13.9267C123.592 13.8156 123.821 13.7208 124.073 13.6368C124.325 13.5529 124.567 13.4851 124.796 13.4283V5.55876H123.332L122.449 8.41128H121.609C121.54 8.12143 121.477 7.79906 121.42 7.43877C121.359 7.08119 121.309 6.71819 121.27 6.35519C121.23 5.98949 121.194 5.63461 121.16 5.29058C121.125 4.94654 121.11 4.64314 121.11 4.38037H131.372C131.372 4.62959 131.358 4.92487 131.332 5.26891C131.306 5.61294 131.269 5.96781 131.222 6.33352C131.175 6.69923 131.122 7.06494 131.062 7.42794C131.001 7.79365 130.938 8.12143 130.872 8.40858H130.032L129.149 5.55605H127.683V13.4283C127.99 13.5122 128.25 13.5881 128.466 13.6558C128.679 13.7262 128.886 13.8156 129.089 13.924V14.7123H129.086Z" fill="#424242"/> <path d="M137.564 14.7123H132.252V13.9267C132.438 13.8156 132.646 13.7235 132.874 13.6477C133.1 13.5718 133.334 13.4987 133.576 13.431V5.66441C133.334 5.59669 133.1 5.52355 132.874 5.4477C132.646 5.37185 132.441 5.27703 132.252 5.16867V4.38308H137.564V5.16867C137.257 5.36372 136.889 5.52896 136.46 5.66712V8.90973H140.189V5.66441C139.8 5.58043 139.435 5.41519 139.085 5.16597V4.38037H144.395V5.16597C144.035 5.40164 143.593 5.56689 143.071 5.66441V13.431C143.312 13.4879 143.543 13.5502 143.772 13.6179C143.998 13.6856 144.206 13.7913 144.395 13.9294V14.715H139.085V13.9294C139.432 13.6666 139.8 13.5014 140.189 13.431V10.0854H136.46V13.431C136.686 13.4879 136.891 13.5556 137.073 13.6396C137.254 13.7235 137.417 13.8211 137.564 13.9294V14.7123Z" fill="#424242"/> <path d="M154.719 12.9785C154.612 13.2142 154.441 13.4499 154.207 13.691C153.973 13.9321 153.687 14.1461 153.345 14.3303C153.004 14.5145 152.61 14.6689 152.163 14.7854C151.716 14.9019 151.23 14.9615 150.71 14.9615C149.883 14.9615 149.147 14.8341 148.506 14.5795C147.865 14.3248 147.329 13.9591 146.903 13.4851C146.475 13.011 146.152 12.4421 145.931 11.7811C145.711 11.1202 145.6 10.3752 145.6 9.54897C145.6 7.78545 146.047 6.44181 146.943 5.51806C147.839 4.59431 149.081 4.13379 150.671 4.13379C151.351 4.13379 151.99 4.23131 152.586 4.42365C153.18 4.61598 153.674 4.93293 154.068 5.37449C154.462 5.81605 154.735 6.39305 154.89 7.11092C155.043 7.82879 155.035 8.70107 154.861 9.73589H148.708C148.721 10.8249 148.992 11.6918 149.52 12.3392C150.048 12.9866 150.826 13.309 151.856 13.309C152.297 13.309 152.754 13.2413 153.23 13.1031C153.703 12.965 154.076 12.7862 154.341 12.5667L154.719 12.9785ZM150.579 5.30947C150.314 5.30947 150.077 5.35823 149.872 5.45305C149.667 5.55057 149.486 5.72394 149.334 5.98129C149.181 6.23593 149.058 6.57997 148.966 7.0134C148.874 7.44683 148.806 7.99404 148.766 8.65502H151.974C152.069 7.57957 152.008 6.75334 151.795 6.17634C151.58 5.59933 151.175 5.30947 150.579 5.30947Z" fill="#424242"/> <path d="M161.692 18.8461H156.162V18.0605C156.616 17.8384 157.057 17.6731 157.486 17.562V5.82688L156.162 5.66164V4.87604C156.374 4.78123 156.64 4.68912 156.952 4.60785C157.265 4.52659 157.591 4.45344 157.924 4.39114C158.258 4.32883 158.581 4.27736 158.897 4.23673C159.209 4.19609 159.475 4.16088 159.687 4.13379H160.368V6.44723H160.389C160.615 5.78625 160.972 5.23633 161.461 4.79477C161.949 4.35321 162.627 4.13379 163.494 4.13379C164.083 4.13379 164.613 4.23402 165.086 4.43448C165.559 4.63494 165.961 4.94376 166.29 5.36365C166.618 5.78354 166.87 6.32262 167.051 6.97548C167.233 7.63104 167.322 8.41122 167.322 9.32142C167.322 10.1883 167.204 10.9739 166.973 11.6782C166.741 12.3825 166.405 12.9731 165.972 13.4553C165.538 13.9375 165.01 14.3086 164.387 14.5714C163.765 14.8341 163.061 14.9642 162.273 14.9642C161.818 14.9642 161.461 14.9344 161.201 14.8721C160.941 14.8098 160.662 14.7041 160.368 14.5524V17.5675C160.581 17.5945 160.796 17.646 161.009 17.7246C161.222 17.8031 161.45 17.9142 161.689 18.0686V18.8461H161.692ZM162.333 5.78625C161.878 5.78625 161.474 5.95149 161.119 6.28198C160.765 6.61248 160.515 7.12176 160.368 7.81254V13.309C160.581 13.4742 160.809 13.5961 161.048 13.6693C161.29 13.7451 161.603 13.7831 161.991 13.7831C162.753 13.7831 163.313 13.4038 163.675 12.6453C164.035 11.8868 164.217 10.7788 164.217 9.31872C164.217 8.18908 164.08 7.3168 163.807 6.70458C163.534 6.09236 163.042 5.78625 162.333 5.78625Z" fill="#424242"/> <path d="M172.734 8.49255C172.96 8.46546 173.247 8.43025 173.585 8.38961C173.927 8.34898 174.363 8.32731 174.899 8.32731C175.942 8.32731 176.785 8.58466 177.434 9.10207C178.083 9.61948 178.406 10.3942 178.406 11.4263C178.406 11.9763 178.304 12.4639 178.096 12.8838C177.889 13.3036 177.602 13.6558 177.235 13.9375C176.867 14.2193 176.433 14.4333 175.932 14.5796C175.43 14.7231 174.886 14.7963 174.297 14.7963C174.111 14.7963 173.853 14.7936 173.525 14.7854C173.197 14.7773 172.845 14.7692 172.464 14.7556C172.083 14.7421 171.704 14.7313 171.331 14.7258C170.958 14.7177 170.643 14.715 170.391 14.715H168.528V13.9294C168.741 13.8048 168.959 13.7073 169.18 13.6396C169.4 13.5718 169.624 13.5014 169.852 13.431V5.66441C169.597 5.62378 169.364 5.55605 169.151 5.46666C168.938 5.37726 168.73 5.27703 168.528 5.16597V4.38037H173.94V5.16597C173.62 5.36101 173.218 5.52626 172.737 5.66441V8.49255H172.734ZM172.734 13.5366C172.871 13.5637 173.015 13.5854 173.173 13.5989C173.328 13.6125 173.48 13.6206 173.63 13.6206C174.174 13.6206 174.586 13.4526 174.873 13.114C175.157 12.7754 175.301 12.2092 175.301 11.4101C175.301 10.6651 175.149 10.164 174.844 9.90121C174.539 9.63844 174.169 9.50841 173.735 9.50841C173.585 9.50841 173.423 9.51654 173.247 9.53008C173.071 9.54363 172.9 9.57072 172.737 9.61406V13.5366H172.734ZM184 14.7123H178.69V13.9267C178.85 13.8292 179.019 13.7398 179.192 13.6558C179.365 13.5718 179.565 13.496 179.794 13.4283V5.66441C179.287 5.56689 178.885 5.40164 178.59 5.16597V4.38037H184.002V5.16597C183.842 5.27703 183.648 5.36914 183.422 5.44499C183.193 5.52084 182.946 5.59398 182.681 5.6617V13.4283C182.907 13.496 183.128 13.5691 183.343 13.645C183.558 13.7208 183.776 13.8156 184.005 13.924V14.7123H184Z" fill="#424242"/> <path d="M22.1419 31.2449H18.8789V30.8467C19.231 30.7004 19.5856 30.5893 19.9377 30.5162L23.6552 21.4385H24.0808L27.7983 30.5162C27.9954 30.5541 28.1871 30.5947 28.3789 30.6408C28.5707 30.6868 28.7494 30.7545 28.9149 30.8467V31.2449H25.1238V30.8467C25.3208 30.7735 25.5205 30.7085 25.7254 30.6543C25.9304 30.6001 26.1327 30.5541 26.3271 30.5162L25.334 27.9941H21.8398L20.8756 30.5162C21.2881 30.5703 21.7084 30.6814 22.1393 30.8467V31.2449H22.1419ZM22.134 27.279H25.087L23.931 24.3587L23.6526 23.1749H23.6237L23.2585 24.3885L22.134 27.279Z" fill="#BDBDBD"/> <path d="M30.2263 31.2448L29.5721 33.2846H29.1938C29.1465 32.8349 29.1097 32.3798 29.0861 31.922C29.0625 31.4615 29.0493 31.0118 29.0493 30.573H30.0477C30.1659 30.4456 30.2972 30.2425 30.4444 29.9662C30.5915 29.6899 30.7307 29.335 30.8621 28.8988C30.9935 28.4627 31.1064 27.9399 31.201 27.3276C31.293 26.7181 31.3403 26.003 31.3403 25.1849C31.1353 25.1307 30.9488 25.0603 30.7807 24.979C30.6151 24.8977 30.4628 24.8083 30.3261 24.7162V24.3586H36.571V24.7162C36.3057 24.8815 35.9825 24.9925 35.6016 25.0467V30.5703H36.91C36.9205 31.0118 36.91 31.4615 36.8811 31.9193C36.8522 32.3771 36.8075 32.8322 36.7497 33.2819H36.3871L35.733 31.2421H30.2263V31.2448ZM32.1494 25.0738C32.1494 25.8973 32.1048 26.6125 32.0181 27.2247C31.9314 27.8369 31.8237 28.3598 31.7028 28.7932C31.5793 29.2266 31.4506 29.5869 31.314 29.8768C31.1774 30.1639 31.0539 30.3969 30.9462 30.5703H34.2827V25.0738H32.1494Z" fill="#BDBDBD"/> <path d="M44.4365 29.2348C44.4365 29.6032 44.3471 29.9174 44.1711 30.1775C43.9951 30.4403 43.756 30.6516 43.4539 30.8195C43.1544 30.9848 42.8076 31.1067 42.4135 31.1852C42.0194 31.2638 41.607 31.3017 41.1735 31.3017C40.8582 31.3017 40.606 31.299 40.4195 31.2936C40.2329 31.2882 40.0753 31.2827 39.9466 31.2719C39.8178 31.2638 39.7101 31.2557 39.6208 31.2502C39.5315 31.2448 39.4342 31.2421 39.3265 31.2421H37.9131V30.8981C38.2178 30.7518 38.541 30.6407 38.8825 30.5676V25.0467C38.5095 24.9817 38.1863 24.8734 37.9131 24.7163V24.3587H39.2372C39.4737 24.3587 39.676 24.356 39.8441 24.3505C40.0122 24.3451 40.1699 24.3397 40.317 24.3289C40.4641 24.3207 40.6139 24.3126 40.761 24.3072C40.9081 24.3018 41.071 24.2991 41.2497 24.2991C42.1166 24.2991 42.7918 24.421 43.2752 24.6648C43.7587 24.9086 44.0004 25.3339 44.0004 25.938C44.0004 26.1574 43.9504 26.3552 43.8532 26.5312C43.7534 26.7046 43.6273 26.8563 43.4697 26.9863C43.312 27.1164 43.1334 27.222 42.9363 27.3114C42.7393 27.3981 42.5475 27.4604 42.3583 27.4983C42.6342 27.5173 42.8969 27.5661 43.1491 27.65C43.4014 27.7313 43.622 27.8451 43.8138 27.9887C44.0056 28.1322 44.158 28.3056 44.271 28.5115C44.3813 28.7174 44.4365 28.9585 44.4365 29.2348ZM40.204 27.5796L41.8539 27.4415C42.0326 27.3575 42.2138 27.2058 42.3978 26.9809C42.5817 26.7561 42.6736 26.4608 42.6736 26.0924C42.6736 25.6427 42.5265 25.3339 42.2349 25.1632C41.9432 24.9926 41.5124 24.9086 40.9475 24.9086C40.8372 24.9086 40.7137 24.9113 40.5745 24.9167C40.4352 24.9221 40.3117 24.9384 40.2014 24.9655V27.5796H40.204ZM40.204 30.6543C40.3406 30.6814 40.514 30.6949 40.7268 30.6949C40.937 30.6949 41.1104 30.6949 41.2497 30.6949C41.8276 30.6949 42.2585 30.5784 42.5422 30.3427C42.826 30.1098 42.9679 29.7766 42.9679 29.3431C42.9679 28.8934 42.7971 28.5548 42.4529 28.33C42.1088 28.1051 41.67 27.9914 41.1314 27.9914H40.2066V30.6543H40.204Z" fill="#BDBDBD"/> <path d="M45.7002 27.8019C45.7002 27.2222 45.7816 26.7102 45.9419 26.2659C46.1048 25.8217 46.336 25.4451 46.6407 25.1363C46.9455 24.8275 47.3107 24.5945 47.7363 24.4347C48.1619 24.2749 48.6348 24.1936 49.155 24.1936C49.7619 24.1936 50.2873 24.2803 50.7287 24.4564C51.1701 24.6297 51.53 24.8763 51.8085 25.1932C52.087 25.5102 52.2945 25.8894 52.4259 26.331C52.5572 26.7725 52.6229 27.2628 52.6229 27.8046C52.6229 28.9614 52.3103 29.8526 51.6824 30.4784C51.0545 31.1041 50.2138 31.4157 49.155 31.4157C48.5665 31.4157 48.0568 31.3317 47.6259 31.161C47.1951 30.9904 46.8378 30.7465 46.554 30.4296C46.2703 30.1127 46.0575 29.7307 45.9156 29.2864C45.7711 28.8367 45.7002 28.3437 45.7002 27.8019ZM47.111 27.8019C47.111 28.2164 47.1531 28.6065 47.2371 28.9722C47.3212 29.3406 47.4526 29.6603 47.6338 29.9312C47.8151 30.202 48.0516 30.4161 48.3458 30.5705C48.6401 30.7276 48.9921 30.8061 49.4046 30.8061C49.9327 30.8061 50.3661 30.5623 50.7051 30.0747C51.044 29.5871 51.2121 28.8313 51.2121 27.8019C51.2121 27.3793 51.1701 26.9865 51.086 26.6235C51.0019 26.2605 50.8732 25.9436 50.6972 25.6727C50.5211 25.4018 50.2952 25.1878 50.022 25.0307C49.7487 24.8736 49.4203 24.7977 49.0368 24.7977C48.4588 24.7977 47.9938 25.0415 47.6417 25.5291C47.287 26.014 47.111 26.7725 47.111 27.8019Z" fill="#BDBDBD"/> <path d="M58.0008 24.356H60.8382V24.7135C60.741 24.7867 60.6096 24.8517 60.4494 24.9059C60.2865 24.9601 60.0894 25.0251 59.853 25.0982C59.5193 25.4748 59.1673 25.8567 58.7942 26.2414C58.4212 26.6261 58.0297 27.0134 57.6172 27.3981C57.8327 27.6175 58.0612 27.8613 58.3003 28.1295C58.5394 28.395 58.7837 28.6713 59.028 28.9557C59.2724 29.2402 59.5167 29.5192 59.7637 29.7955C60.008 30.0718 60.2497 30.3292 60.4835 30.5676L61.1745 30.8981V31.2421H59.4537L58.9834 30.9252C58.542 30.4294 58.14 29.9337 57.7775 29.4379C57.4149 28.9422 57.0471 28.4546 56.6741 27.9778H56.0856V30.5676C56.2826 30.6136 56.4613 30.6624 56.6215 30.7111C56.7844 30.7626 56.9236 30.8249 57.0392 30.8981V31.2421H53.792V30.8981C54.0573 30.7518 54.3805 30.6407 54.7614 30.5676V25.0467C54.4173 24.9817 54.0941 24.8734 53.792 24.7162V24.3587H56.8054V24.7162C56.7082 24.7813 56.6031 24.8409 56.4902 24.895C56.3772 24.9492 56.2432 25.0007 56.0856 25.0467V27.6229L56.7608 27.4848C57.1522 27.0622 57.5253 26.6667 57.8773 26.301C58.2294 25.9326 58.5578 25.5343 58.8625 25.1036C58.697 25.0386 58.542 24.9763 58.4001 24.9167C58.2583 24.8571 58.1243 24.7894 57.9955 24.7162V24.356H58.0008Z" fill="#BDBDBD"/> <path d="M67.2015 29.4408C67.2015 29.644 67.2067 29.8174 67.2173 29.9637C67.2278 30.1099 67.2356 30.2671 67.2462 30.4323L68.2603 30.5705V30.8603C68.0159 30.9795 67.7427 31.0852 67.4458 31.1773C67.1463 31.2694 66.8599 31.3371 66.5867 31.3831H66.2189C66.1217 31.1719 66.0613 30.9389 66.0429 30.6869C66.0219 30.435 66.0087 30.156 65.9982 29.8526H65.9247C65.8852 30.0368 65.8091 30.2237 65.6961 30.4106C65.5831 30.6003 65.436 30.7655 65.2547 30.9145C65.0734 31.0608 64.8606 31.18 64.6163 31.2721C64.372 31.3642 64.0909 31.4102 63.7782 31.4102C63.1792 31.4102 62.6932 31.2396 62.3149 30.901C61.9365 30.5623 61.75 30.1154 61.75 29.5654C61.75 29.1429 61.8393 28.7961 62.0232 28.5252C62.2045 28.2543 62.4725 28.0403 62.8245 27.8832C63.1766 27.7261 63.6127 27.615 64.1329 27.5446C64.6531 27.4768 65.2547 27.4227 65.9404 27.3875C65.9798 26.9919 65.993 26.6371 65.9772 26.3201C65.9614 26.0032 65.9089 25.7323 65.8143 25.5074C65.7224 25.2826 65.5831 25.1092 65.4018 24.9846C65.2206 24.86 64.9841 24.7977 64.6899 24.7977C64.5532 24.7977 64.3982 24.8058 64.2275 24.8194C64.0567 24.8329 63.8859 24.8736 63.7204 24.9359L63.0295 26.5883H62.6485C62.5513 26.312 62.4646 26.0276 62.391 25.735C62.3175 25.4424 62.2702 25.1526 62.2518 24.8681C62.6249 24.6568 63.0373 24.4916 63.4945 24.3724C63.949 24.2532 64.456 24.1936 65.0156 24.1936C65.5148 24.1936 65.9141 24.2613 66.2137 24.3941C66.5132 24.5268 66.7391 24.7002 66.8967 24.9115C67.0544 25.1228 67.1568 25.3557 67.2041 25.6131C67.254 25.8704 67.2777 26.1278 67.2777 26.3851C67.2777 26.9351 67.2645 27.466 67.2409 27.9753C67.2146 28.4846 67.2015 28.9722 67.2015 29.4408ZM64.3667 30.5569C64.611 30.5569 64.8265 30.5109 65.013 30.4188C65.1995 30.3267 65.3572 30.2156 65.4833 30.0883C65.6094 29.961 65.7145 29.8282 65.7907 29.6955C65.8695 29.5627 65.922 29.449 65.9536 29.3569V27.9103C65.3861 27.9103 64.9184 27.9374 64.5585 27.9943C64.1959 28.0484 63.9122 28.1378 63.7073 28.257C63.5024 28.3762 63.3605 28.5252 63.2817 28.704C63.2029 28.8828 63.1634 29.0887 63.1634 29.3162C63.1634 29.7117 63.2712 30.0178 63.4866 30.2318C63.6994 30.4486 63.9936 30.5569 64.3667 30.5569Z" fill="#BDBDBD"/> <path d="M73.8754 31.2448H70.6124V30.9008C70.9171 30.7545 71.2403 30.6434 71.5818 30.5703V24.9628H70.1868L69.5562 26.6152H69.1832C69.1359 26.2197 69.0965 25.8323 69.0676 25.4504C69.0387 25.0684 69.0203 24.7054 69.0098 24.356H75.4753C75.4648 24.6864 75.4491 25.0467 75.4254 25.4368C75.4018 25.8269 75.3598 26.2197 75.3046 26.6152H74.9315L74.301 24.9628H72.9059V30.5703C73.3657 30.6813 73.6888 30.7897 73.8754 30.9008V31.2448Z" fill="#BDBDBD"/> <path d="M82.1634 30.2806C81.9874 30.603 81.701 30.8712 81.3043 31.0852C80.9076 31.3019 80.4452 31.4103 79.9145 31.4103C79.3365 31.4103 78.8347 31.3263 78.4091 31.1556C77.9835 30.985 77.6288 30.7412 77.3424 30.4242C77.0587 30.1073 76.8459 29.7253 76.704 29.281C76.5621 28.8368 76.4912 28.341 76.4912 27.7992C76.4912 26.6317 76.796 25.7404 77.4029 25.1201C78.0097 24.4997 78.8373 24.1909 79.8856 24.1909C80.3664 24.1909 80.7946 24.2288 81.1703 24.3074C81.5486 24.386 81.8691 24.4889 82.1319 24.6162C82.103 24.9196 82.0478 25.2582 81.969 25.6348C81.8901 26.0113 81.7929 26.3229 81.6747 26.5721H81.278L80.6606 24.9332C80.5923 24.8871 80.5135 24.8519 80.4242 24.8302C80.3348 24.8086 80.1877 24.795 79.9828 24.795C79.3155 24.795 78.8032 25.0226 78.4406 25.4777C78.0781 25.9328 77.8968 26.7021 77.8968 27.7857C77.8968 28.1351 77.9493 28.4738 78.0518 28.8043C78.1542 29.1347 78.3119 29.43 78.5221 29.6928C78.7322 29.9556 78.9976 30.1641 79.3155 30.3186C79.6334 30.4757 80.0038 30.5515 80.4242 30.5515C80.7657 30.5515 81.0652 30.5055 81.32 30.4134C81.5749 30.3213 81.7903 30.2102 81.9663 30.0829L82.1634 30.2806Z" fill="#BDBDBD"/> <path d="M87.5131 24.356H90.3505V24.7135C90.2533 24.7867 90.122 24.8517 89.9617 24.9059C89.7988 24.9601 89.6018 25.0251 89.3653 25.0982C89.0317 25.4748 88.6796 25.8567 88.3065 26.2414C87.9335 26.6261 87.542 27.0134 87.1295 27.3981C87.345 27.6175 87.5735 27.8613 87.8126 28.1295C88.0517 28.395 88.296 28.6713 88.5404 28.9557C88.7847 29.2402 89.029 29.5192 89.276 29.7955C89.5203 30.0718 89.762 30.3292 89.9958 30.5676L90.6868 30.8981V31.2421H88.966L88.4957 30.9252C88.0543 30.4294 87.6524 29.9337 87.2898 29.4379C86.9272 28.9422 86.5594 28.4546 86.1864 27.9778H85.5979V30.5676C85.7949 30.6136 85.9736 30.6624 86.1338 30.7111C86.2967 30.7626 86.436 30.8249 86.5516 30.8981V31.2421H83.3096V30.8981C83.5749 30.7518 83.8981 30.6407 84.279 30.5676V25.0467C83.9348 24.9817 83.6117 24.8734 83.3096 24.7162V24.3587H86.323V24.7162C86.2258 24.7813 86.1207 24.8409 86.0077 24.895C85.8948 24.9492 85.7608 25.0007 85.6031 25.0467V27.6229L86.2783 27.4848C86.6698 27.0622 87.0428 26.6667 87.3949 26.301C87.7469 25.9326 88.0753 25.5343 88.3801 25.1036C88.2146 25.0386 88.0596 24.9763 87.9177 24.9167C87.7758 24.8571 87.6419 24.7894 87.5131 24.7162V24.356Z" fill="#BDBDBD"/> <path d="M96.7132 29.4408C96.7132 29.644 96.7184 29.8174 96.7289 29.9637C96.7394 30.1099 96.7473 30.2671 96.7578 30.4323L97.7719 30.5705V30.8603C97.5276 30.9795 97.2544 31.0852 96.9575 31.1773C96.658 31.2694 96.3716 31.3371 96.0984 31.3831H95.7306C95.6334 31.1719 95.573 30.9389 95.5546 30.6869C95.5336 30.435 95.5204 30.156 95.5099 29.8526H95.4364C95.3969 30.0368 95.3208 30.2237 95.2078 30.4106C95.0948 30.6003 94.9477 30.7655 94.7664 30.9145C94.5851 31.0608 94.3723 31.18 94.128 31.2721C93.8837 31.3642 93.6026 31.4102 93.2899 31.4102C92.6909 31.4102 92.2049 31.2396 91.8266 30.901C91.4482 30.5623 91.2617 30.1154 91.2617 29.5654C91.2617 29.1429 91.351 28.7961 91.535 28.5252C91.7162 28.2543 91.9842 28.0403 92.3362 27.8832C92.6883 27.7261 93.1244 27.615 93.6446 27.5446C94.1648 27.4768 94.7664 27.4227 95.4521 27.3875C95.4915 26.9919 95.5047 26.6371 95.4889 26.3201C95.4731 26.0032 95.4206 25.7323 95.326 25.5074C95.2341 25.2826 95.0948 25.1092 94.9135 24.9846C94.7323 24.86 94.4958 24.7977 94.2016 24.7977C94.065 24.7977 93.9099 24.8058 93.7392 24.8194C93.5684 24.8329 93.3976 24.8736 93.2321 24.9359L92.5412 26.5883H92.1576C92.0604 26.312 91.9737 26.0276 91.9001 25.735C91.8266 25.4424 91.7793 25.1526 91.7609 24.8681C92.134 24.6568 92.5464 24.4916 93.0036 24.3724C93.4607 24.2532 93.9651 24.1936 94.5247 24.1936C95.0239 24.1936 95.4232 24.2613 95.7227 24.3941C96.0222 24.5268 96.2482 24.7002 96.4058 24.9115C96.5634 25.1228 96.6659 25.3557 96.7132 25.6131C96.7631 25.8704 96.7867 26.1278 96.7867 26.3851C96.7867 26.9351 96.7736 27.466 96.75 27.9753C96.7263 28.4846 96.7132 28.9722 96.7132 29.4408ZM93.8784 30.5569C94.1227 30.5569 94.3382 30.5109 94.5247 30.4188C94.7112 30.3267 94.8689 30.2156 94.995 30.0883C95.1211 29.961 95.2262 29.8282 95.3024 29.6955C95.3812 29.5627 95.4337 29.449 95.4653 29.3569V27.9103C94.8978 27.9103 94.4328 27.9374 94.0702 27.9943C93.7077 28.0511 93.4239 28.1378 93.219 28.257C93.0141 28.3762 92.8722 28.5252 92.7934 28.704C92.7146 28.8828 92.6752 29.0887 92.6752 29.3162C92.6752 29.7117 92.7829 30.0178 92.9983 30.2318C93.2111 30.4486 93.5054 30.5569 93.8784 30.5569Z" fill="#BDBDBD"/> <path d="M99.0515 26.3824C99.0515 26.0709 99.1067 25.7865 99.2144 25.5291C99.3221 25.2718 99.4902 25.0523 99.7214 24.8681C99.9526 24.6839 100.244 24.5404 100.604 24.4347C100.961 24.3291 101.395 24.2776 101.905 24.2776C102.023 24.2776 102.186 24.283 102.396 24.2911C102.606 24.2993 102.829 24.3101 103.066 24.3182C103.3 24.3263 103.528 24.3372 103.749 24.3453C103.97 24.3534 104.143 24.3589 104.272 24.3589H105.331V24.7164C105.252 24.7815 105.141 24.841 105 24.8952C104.858 24.9494 104.645 25.0009 104.361 25.0469V30.5705C104.724 30.6707 105.047 30.7818 105.331 30.901V31.245H102.17V30.901C102.296 30.8278 102.433 30.7655 102.575 30.714C102.716 30.6626 102.871 30.6165 103.037 30.5705V28.2435L101.965 28.3816C101.76 28.704 101.529 29.0914 101.274 29.5465C101.019 30.0016 100.672 30.4621 100.231 30.9308L99.7766 31.2477H98.1162V30.9037L98.9385 30.5732C99.3799 30.1425 99.7503 29.7144 100.055 29.2918C100.36 28.8693 100.633 28.5117 100.877 28.2164C100.651 28.1812 100.431 28.1189 100.215 28.0295C99.9999 27.9428 99.8055 27.8236 99.6347 27.6719C99.464 27.5202 99.3247 27.3387 99.217 27.1274C99.104 26.9161 99.0515 26.6669 99.0515 26.3824ZM103.034 24.963C102.908 24.944 102.743 24.9277 102.543 24.9088C102.343 24.8898 102.173 24.8817 102.036 24.8817C101.429 24.8736 101.009 25.0036 100.78 25.2745C100.549 25.5454 100.436 25.9002 100.436 26.3418C100.436 26.7915 100.615 27.1626 100.972 27.4498C101.329 27.7396 101.886 27.8832 102.64 27.8832H103.037V24.963H103.034Z" fill="#BDBDBD"/> <path d="M114.247 24.356H117.085V24.7135C116.988 24.7867 116.856 24.8517 116.696 24.9059C116.533 24.9601 116.336 25.0251 116.1 25.0982C115.766 25.4748 115.414 25.8567 115.041 26.2414C114.668 26.6261 114.276 27.0134 113.864 27.3981C114.079 27.6175 114.308 27.8613 114.547 28.1295C114.786 28.395 115.03 28.6713 115.275 28.9557C115.519 29.2402 115.766 29.5192 116.01 29.7955C116.255 30.0718 116.496 30.3292 116.73 30.5676L117.421 30.8981V31.2421H115.703L115.233 30.9252C114.791 30.4294 114.389 29.9337 114.027 29.4379C113.664 28.9422 113.296 28.4546 112.923 27.9778H112.335V30.5676C112.532 30.6136 112.711 30.6624 112.871 30.7111C113.034 30.7626 113.173 30.8249 113.289 30.8981V31.2421H110.041V30.8981C110.307 30.7518 110.63 30.6407 111.011 30.5676V25.0467C110.667 24.9817 110.343 24.8734 110.041 24.7162V24.3587H113.055V24.7162C112.957 24.7813 112.852 24.8409 112.739 24.895C112.626 24.9492 112.492 25.0007 112.335 25.0467V27.6229L113.01 27.4848C113.401 27.0622 113.775 26.6667 114.127 26.301C114.479 25.9326 114.807 25.5343 115.112 25.1036C114.946 25.0386 114.791 24.9763 114.649 24.9167C114.508 24.8571 114.374 24.7894 114.245 24.7162V24.356H114.247Z" fill="#BDBDBD"/> <path d="M118.025 27.8019C118.025 27.2222 118.106 26.7102 118.266 26.2659C118.429 25.8217 118.66 25.4451 118.965 25.1363C119.27 24.8275 119.633 24.5945 120.061 24.4347C120.486 24.2749 120.959 24.1936 121.479 24.1936C122.086 24.1936 122.612 24.2803 123.053 24.4564C123.495 24.6297 123.854 24.8763 124.133 25.1932C124.411 25.5102 124.619 25.8894 124.75 26.331C124.882 26.7725 124.95 27.2628 124.95 27.8046C124.95 28.9614 124.637 29.8526 124.009 30.4784C123.382 31.1041 122.541 31.4157 121.482 31.4157C120.894 31.4157 120.384 31.3317 119.953 31.161C119.522 30.9904 119.165 30.7465 118.881 30.4296C118.597 30.1127 118.385 29.7307 118.243 29.2864C118.096 28.8367 118.025 28.3437 118.025 27.8019ZM119.435 27.8019C119.435 28.2164 119.478 28.6065 119.562 28.9722C119.646 29.3406 119.777 29.6603 119.958 29.9312C120.14 30.202 120.376 30.4161 120.67 30.5705C120.965 30.7276 121.317 30.8061 121.729 30.8061C122.257 30.8061 122.691 30.5623 123.029 30.0747C123.368 29.5871 123.537 28.8313 123.537 27.8019C123.537 27.3793 123.495 26.9865 123.41 26.6235C123.326 26.2605 123.198 25.9436 123.022 25.6727C122.846 25.4018 122.62 25.1878 122.346 25.0307C122.073 24.8736 121.745 24.7977 121.361 24.7977C120.783 24.7977 120.318 25.0415 119.966 25.5291C119.611 26.014 119.435 26.7725 119.435 27.8019Z" fill="#BDBDBD"/> <path d="M129.282 31.2448H126.122V30.9008C126.258 30.8276 126.411 30.7653 126.576 30.7138C126.742 30.6624 126.915 30.6163 127.091 30.5703V25.0467C126.915 25.0007 126.744 24.9519 126.576 24.9031C126.411 24.8517 126.258 24.7894 126.122 24.7162V24.3586H129.282V24.7162C129.056 24.8435 128.767 24.9546 128.415 25.0467V27.4577H131.678V25.0467C131.334 24.9925 131.043 24.8815 130.796 24.7162V24.3586H133.969V24.7162C133.704 24.8733 133.381 24.9817 133 25.0467V30.5703C133.176 30.6082 133.347 30.6488 133.515 30.6949C133.68 30.7409 133.833 30.8086 133.969 30.9008V31.2448H130.796V30.9008C131.04 30.7355 131.334 30.6244 131.678 30.5703V28.0618H128.415V30.5703C128.612 30.6082 128.778 30.6542 128.915 30.7084C129.051 30.7626 129.175 30.8276 129.282 30.9008V31.2448Z" fill="#BDBDBD"/> <path d="M139.82 31.2448H136.557V30.9008C136.862 30.7545 137.185 30.6434 137.527 30.5703V24.9628H136.132L135.501 26.6152H135.128C135.081 26.2197 135.042 25.8323 135.013 25.4504C134.984 25.0684 134.965 24.7054 134.955 24.356H141.42C141.41 24.6864 141.394 25.0467 141.371 25.4368C141.347 25.8269 141.305 26.2197 141.25 26.6152H140.877L140.246 24.9628H138.851V30.5703C139.311 30.6813 139.634 30.7897 139.82 30.9008V31.2448Z" fill="#BDBDBD"/> <path d="M142.434 27.8019C142.434 27.2222 142.516 26.7102 142.676 26.2659C142.839 25.8217 143.07 25.4451 143.375 25.1363C143.679 24.8275 144.042 24.5945 144.47 24.4347C144.896 24.2749 145.369 24.1936 145.889 24.1936C146.496 24.1936 147.021 24.2803 147.463 24.4564C147.904 24.6297 148.264 24.8763 148.542 25.1932C148.821 25.5102 149.028 25.8894 149.16 26.331C149.291 26.7725 149.359 27.2628 149.359 27.8046C149.359 28.9614 149.047 29.8526 148.419 30.4784C147.791 31.1041 146.95 31.4157 145.891 31.4157C145.303 31.4157 144.793 31.3317 144.362 31.161C143.932 30.9904 143.574 30.7465 143.291 30.4296C143.007 30.1127 142.794 29.7307 142.652 29.2864C142.505 28.8367 142.434 28.3437 142.434 27.8019ZM143.845 27.8019C143.845 28.2164 143.887 28.6065 143.971 28.9722C144.055 29.3406 144.186 29.6603 144.368 29.9312C144.549 30.202 144.785 30.4161 145.08 30.5705C145.374 30.7276 145.726 30.8061 146.138 30.8061C146.667 30.8061 147.1 30.5623 147.439 30.0747C147.778 29.5871 147.946 28.8313 147.946 27.8019C147.946 27.3793 147.904 26.9865 147.82 26.6235C147.736 26.2605 147.607 25.9436 147.431 25.6727C147.255 25.4018 147.029 25.1878 146.756 25.0307C146.483 24.8736 146.154 24.7977 145.771 24.7977C145.193 24.7977 144.728 25.0415 144.376 25.5291C144.024 26.014 143.845 26.7725 143.845 27.8019Z" fill="#BDBDBD"/> <path d="M153.68 34H150.417V33.656C150.75 33.5097 151.073 33.3986 151.386 33.3255V25.1553L150.417 25.0442V24.6867C150.729 24.5593 151.05 24.4537 151.378 24.3778C151.706 24.2993 152.027 24.237 152.34 24.1909H152.707V25.735H152.723C152.92 25.2664 153.193 24.8925 153.546 24.6135C153.898 24.3345 154.36 24.1936 154.927 24.1936C155.8 24.1936 156.475 24.4645 156.956 25.0063C157.436 25.5481 157.675 26.4312 157.675 27.6502C157.675 28.23 157.594 28.7528 157.434 29.2214C157.271 29.6901 157.042 30.0856 156.743 30.4052C156.443 30.7276 156.081 30.9741 155.655 31.1502C155.23 31.3236 154.757 31.413 154.236 31.413C153.874 31.413 153.59 31.3913 153.383 31.3507C153.178 31.31 152.952 31.2369 152.707 31.1367V33.3282C152.865 33.3472 153.02 33.3797 153.178 33.4311C153.335 33.4826 153.501 33.5585 153.677 33.6587V34H153.68ZM154.457 25.0469C153.976 25.0469 153.595 25.1905 153.312 25.475C153.028 25.7594 152.826 26.1495 152.71 26.6452V30.5028C152.886 30.603 153.086 30.6788 153.306 30.7303C153.527 30.7818 153.813 30.8062 154.166 30.8062C154.489 30.8062 154.78 30.7276 155.04 30.5705C155.3 30.4134 155.521 30.1939 155.702 29.9095C155.884 29.6251 156.023 29.2919 156.12 28.9099C156.217 28.5279 156.267 28.1081 156.267 27.6502C156.267 27.2737 156.236 26.927 156.173 26.61C156.11 26.2931 156.007 26.0167 155.865 25.7838C155.723 25.5481 155.537 25.3693 155.306 25.2393C155.072 25.1092 154.791 25.0469 154.457 25.0469Z" fill="#BDBDBD"/> <path d="M164.306 29.4408C164.306 29.644 164.311 29.8174 164.322 29.9637C164.332 30.1099 164.34 30.2671 164.35 30.4323L165.365 30.5705V30.8603C165.12 30.9795 164.847 31.0852 164.55 31.1773C164.251 31.2694 163.964 31.3371 163.691 31.3831H163.323C163.226 31.1719 163.166 30.9389 163.147 30.6869C163.126 30.435 163.113 30.156 163.102 29.8526H163.029C162.989 30.0368 162.913 30.2237 162.8 30.4106C162.687 30.6003 162.54 30.7655 162.359 30.9145C162.178 31.0608 161.965 31.18 161.721 31.2721C161.476 31.3642 161.195 31.4102 160.882 31.4102C160.283 31.4102 159.797 31.2396 159.419 30.901C159.041 30.5623 158.854 30.1154 158.854 29.5654C158.854 29.1429 158.944 28.7961 159.127 28.5252C159.309 28.2543 159.577 28.0403 159.929 27.8832C160.281 27.7261 160.717 27.615 161.237 27.5446C161.757 27.4768 162.359 27.4227 163.045 27.3875C163.084 26.9919 163.097 26.6371 163.081 26.3201C163.066 26.0032 163.013 25.7323 162.919 25.5074C162.827 25.2826 162.687 25.1092 162.506 24.9846C162.325 24.86 162.088 24.7977 161.794 24.7977C161.657 24.7977 161.502 24.8058 161.332 24.8194C161.161 24.8329 160.99 24.8736 160.825 24.9359L160.134 26.5883H159.75C159.653 26.312 159.566 26.0276 159.493 25.735C159.419 25.4424 159.372 25.1526 159.353 24.8681C159.726 24.6568 160.139 24.4916 160.596 24.3724C161.053 24.2532 161.558 24.1936 162.117 24.1936C162.616 24.1936 163.016 24.2613 163.315 24.3941C163.615 24.5268 163.841 24.7002 163.998 24.9115C164.156 25.1228 164.258 25.3557 164.306 25.6131C164.356 25.8704 164.379 26.1278 164.379 26.3851C164.379 26.9351 164.366 27.466 164.343 27.9753C164.316 28.4846 164.306 28.9722 164.306 29.4408ZM161.468 30.5569C161.713 30.5569 161.928 30.5109 162.115 30.4188C162.301 30.3267 162.459 30.2156 162.585 30.0883C162.711 29.961 162.816 29.8282 162.892 29.6955C162.971 29.5627 163.024 29.449 163.055 29.3569V27.9103C162.488 27.9103 162.023 27.9374 161.66 27.9943C161.298 28.0511 161.014 28.1378 160.809 28.257C160.604 28.3762 160.462 28.5252 160.383 28.704C160.304 28.8828 160.265 29.0887 160.265 29.3162C160.265 29.7117 160.373 30.0178 160.588 30.2318C160.801 30.4486 161.095 30.5569 161.468 30.5569Z" fill="#BDBDBD"/> </g> <defs> <clipPath id="clip0"> <rect width="184" height="34" fill="#000000"/> </clipPath> </defs> </svg>